<svg xmlns="http://www.w3.org/2000/svg" width="19.063" height="22.412" viewBox="0 0 19.063 22.412"><defs><style>.a{fill:#c8c8c8;}</style></defs><g transform="translate(-36.073)"><g transform="translate(36.073)"><path class="a" d="M141.844,12.076h.149a4.283,4.283,0,0,0,3.272-1.416c1.787-2.014,1.49-5.467,1.457-5.8A4.735,4.735,0,0,0,144.471.654a5.16,5.16,0,0,0-2.5-.654H141.9a5.168,5.168,0,0,0-2.5.636,4.738,4.738,0,0,0-2.279,4.228c-.032.33-.33,3.782,1.457,5.8A4.265,4.265,0,0,0,141.844,12.076Zm-3.485-7.1c0-.014,0-.028,0-.037.153-3.328,2.515-3.685,3.527-3.685h.056c1.253.028,3.383.538,3.527,3.685a.091.091,0,0,0,0,.037c0,.032.33,3.188-1.146,4.85a3.042,3.042,0,0,1-2.39.993H141.9a3.032,3.032,0,0,1-2.385-.993C138.039,8.178,138.354,5.008,138.359,4.98Z" transform="translate(-132.394)"/><path class="a" d="M55.135,265.016V265c0-.037,0-.074,0-.116-.028-.919-.088-3.068-2.1-3.755l-.046-.014a13.392,13.392,0,0,1-3.852-1.754.626.626,0,1,0-.719,1.026,14.455,14.455,0,0,0,4.237,1.935c1.081.385,1.2,1.541,1.235,2.6a.933.933,0,0,0,0,.116,8.424,8.424,0,0,1-.1,1.434,17.08,17.08,0,0,1-8.182,1.9,17.179,17.179,0,0,1-8.187-1.907,7.975,7.975,0,0,1-.1-1.434c0-.037,0-.074,0-.116.032-1.058.153-2.214,1.235-2.6a14.59,14.59,0,0,0,4.237-1.935.626.626,0,1,0-.719-1.026,13.245,13.245,0,0,1-3.852,1.754l-.046.014c-2.014.692-2.075,2.84-2.1,3.755a.933.933,0,0,1,0,.116v.014a7.117,7.117,0,0,0,.237,2.1.6.6,0,0,0,.241.292,17.554,17.554,0,0,0,9.059,2.218,17.608,17.608,0,0,0,9.059-2.218.621.621,0,0,0,.241-.292A7.467,7.467,0,0,0,55.135,265.016Z" transform="translate(-36.073 -247.213)"/></g></g></svg>