<svg xmlns="http://www.w3.org/2000/svg" width="22.764" height="24.745" viewBox="0 0 22.764 24.745"><defs><style>.a{fill:#c1c1c1;}</style></defs><g transform="translate(-20.493)"><g transform="translate(20.493)"><path class="a" d="M42.774,15.489H38.013V3.71A1.55,1.55,0,0,0,36.46,2.166H32.878a.483.483,0,0,0-.464-.351h-1.2a1.961,1.961,0,0,0-3.912,0h-1.2a.483.483,0,0,0-.464.351H22.045A1.55,1.55,0,0,0,20.493,3.71V22.123a1.55,1.55,0,0,0,1.552,1.544H33.933v.595a.483.483,0,0,0,.483.483h8.357a.483.483,0,0,0,.483-.483v-8.29A.483.483,0,0,0,42.774,15.489Zm-5.2.967h2.051v2.081l-.773-.472a.483.483,0,0,0-.5,0l-.774.473ZM37.046,3.71V15.489H35.9V4.742a.483.483,0,0,0-.483-.483H32.9V3.132H36.46a.582.582,0,0,1,.586.577Zm-2.63,11.779a.483.483,0,0,0-.483.483v4.635H23.57V5.226H34.936V15.489ZM27.776,2.782a.483.483,0,0,0,.483-.483V1.948a.994.994,0,0,1,1.988,0V2.3a.483.483,0,0,0,.483.483h1.2V4.259H26.575V2.782ZM22.045,22.7a.582.582,0,0,1-.586-.577V3.71a.582.582,0,0,1,.586-.577h3.564V4.259H23.087a.483.483,0,0,0-.483.483V21.09a.483.483,0,0,0,.483.483H33.933V22.7H22.045ZM42.29,23.778H34.9V16.455h1.7V19.4a.483.483,0,0,0,.735.412l1.258-.768,1.256.768a.483.483,0,0,0,.735-.412V16.455h1.7v7.323Z" transform="translate(-20.493)"/><path class="a" d="M110.983,135.976h-2.645a.483.483,0,0,0-.483.483v2.625a.483.483,0,0,0,.483.483h2.645a.483.483,0,0,0,.483-.483v-2.625A.483.483,0,0,0,110.983,135.976ZM110.5,138.6h-1.678v-1.658H110.5Z" transform="translate(-103.633 -129.404)"/><path class="a" d="M110.983,324.221h-2.645a.483.483,0,0,0-.483.483v2.625a.483.483,0,0,0,.483.483h2.645a.483.483,0,0,0,.483-.483V324.7A.483.483,0,0,0,110.983,324.221Zm-.483,2.625h-1.678v-1.658H110.5Z" transform="translate(-103.633 -308.551)"/><path class="a" d="M110.983,230.112h-2.645a.483.483,0,0,0-.483.483v2.623a.483.483,0,0,0,.483.483h2.645a.483.483,0,0,0,.483-.483V230.6A.483.483,0,0,0,110.983,230.112Zm-.483,2.623h-1.678v-1.657H110.5Z" transform="translate(-103.633 -218.991)"/><path class="a" d="M213.567,183.71h-3.178a.483.483,0,0,0,0,.967h3.178a.483.483,0,1,0,0-.967Z" transform="translate(-200.752 -174.831)"/><path class="a" d="M213.567,142.552h-3.178a.483.483,0,0,0,0,.967h3.178a.483.483,0,1,0,0-.967Z" transform="translate(-200.752 -135.662)"/><path class="a" d="M213.567,277.847h-3.178a.483.483,0,1,0,0,.967h3.178a.483.483,0,1,0,0-.967Z" transform="translate(-200.752 -264.419)"/><path class="a" d="M213.567,236.66h-3.178a.483.483,0,0,0,0,.967h3.178a.483.483,0,1,0,0-.967Z" transform="translate(-200.752 -225.222)"/><path class="a" d="M212.389,371.955h-2a.483.483,0,0,0,0,.967h2a.483.483,0,1,0,0-.967Z" transform="translate(-200.752 -353.978)"/><path class="a" d="M212.389,330.8h-2a.483.483,0,0,0,0,.967h2a.483.483,0,1,0,0-.967Z" transform="translate(-200.752 -314.81)"/></g></g></svg>