<svg xmlns="http://www.w3.org/2000/svg" width="16.926" height="16" viewBox="0 0 16.926 16"><g transform="translate(0 -14)"><path d="M16.027,18.76h-2.87a.9.9,0,0,0-.9.9v3.3H11.185a2.466,2.466,0,0,0,.067-.77h0a7.206,7.206,0,0,0-.679-3.152,3.382,3.382,0,0,0-1.051-1.266,2.3,2.3,0,0,0,.615-1.628,2.1,2.1,0,1,0-4.207,0,.248.248,0,0,0,.248.248h.168a1.746,1.746,0,0,0-.024.286,1.722,1.722,0,0,0,1.383,1.686,4.179,4.179,0,0,0-.123,1.079l-.618.532-1.5.122-1.736-.574a.526.526,0,0,0-.5,0,.44.44,0,0,0-.154.37v1.29a.248.248,0,0,0,.248.248h.3L3.166,23a.248.248,0,0,0,.476.138l.493-1.7h.7A8,8,0,0,0,5.232,27.7H4.786L2.93,25.62l.393-1.356a.248.248,0,0,0-.476-.138l-.375,1.3A2.494,2.494,0,0,0,.006,27.357a.248.248,0,0,0,.186.3l.352.081a1.9,1.9,0,0,0,3.666.844l.278.064a.324.324,0,0,0,.24-.013.285.285,0,0,0,.14-.19,2.467,2.467,0,0,0,.04-.247h5.185a2.113,2.113,0,0,0,4.181,0h.235a.34.34,0,0,0,.257-.093.318.318,0,0,0,.088-.241,2.811,2.811,0,0,0-.1-.672,3.868,3.868,0,0,0-.274-2.5.653.653,0,0,0,.3-.546v-.681h1.252a.9.9,0,0,0,.9-.9v-2.9a.9.9,0,0,0-.9-.9ZM3.176,29.1a1.391,1.391,0,0,1-1.057.178h0a1.4,1.4,0,0,1-1.086-1.435l2.689.619a1.394,1.394,0,0,1-.546.638Zm1.241-.987L.56,27.23a2,2,0,0,1,1.974-1.308l1.889,2.112Q4.421,28.076,4.417,28.117ZM8.162,23.8a2.207,2.207,0,0,0-.072.748v.936H7.182V24.2c0-1.451.792-1.71,1.147-1.752H10.76a1.051,1.051,0,0,1-.225.712,1.151,1.151,0,0,1-.86.258h-.89A.6.6,0,0,0,8.162,23.8ZM8.09,25.976v.592H6.322a.706.706,0,0,1,.171-.424.612.612,0,0,1,.441-.168Zm2.659-4.028H8.494a9.258,9.258,0,0,1-.238-.918l.686-.445a1.023,1.023,0,0,0,.534-.942.877.877,0,0,0-.546-.718.9.9,0,0,0-.832.092,2.927,2.927,0,0,1,.12-.629,1.748,1.748,0,0,0,.314-.062A2.054,2.054,0,0,0,9.11,18.1c.478.285,1.528,1.211,1.639,3.85ZM6.446,15.9a1.605,1.605,0,0,1,3.2.248,1.684,1.684,0,0,1-.927,1.6v-1.3a.493.493,0,0,0-.5-.54H6.446Zm.375.782a1.235,1.235,0,0,1,.033-.286h1.33l.034.005a.3.3,0,0,1,0,.041v1.45a1.227,1.227,0,0,1-.178.013h0a1.224,1.224,0,0,1-1.22-1.223ZM6.5,20.511l.587-.048a.248.248,0,0,0,.142-.059l1.06-.912h0a.492.492,0,0,1,.318-.134.382.382,0,0,1,.377.333.547.547,0,0,1-.311.478l-1.181.767H6.5v-.425ZM5.451,20.6,6,20.551v.385H5.362c-.083,0-.1-.069-.106-.127A.2.2,0,0,1,5.451,20.6Zm-.587-.171a.716.716,0,0,0-.091.51s0,0,0,0h-1.2v-.941l1.294.428Zm.5,1.008h2.2a.248.248,0,0,0,.135-.04l.112-.073c.054.239.115.471.182.69-.506.149-1.308.632-1.308,2.187V25.5a1.035,1.035,0,0,0-.552.3,1.209,1.209,0,0,0-.31.767h-.5a7.292,7.292,0,0,1,.039-5.136ZM5.772,27.7c-.092-.211-.18-.421-.263-.631H8.083c.334,0,.5-.152.5-.451v-1.82h1.957a.248.248,0,1,0,0-.5H8.588a1.122,1.122,0,0,1,.038-.324c.013-.033.023-.062.16-.062h.89a1.6,1.6,0,0,0,1.219-.412l.035-.04h3.349v.681a.159.159,0,0,1-.157.157H11.654a.248.248,0,0,0,0,.5h2.323a2.927,2.927,0,0,1,.362,1.531,2.691,2.691,0,0,0-4.1-.32A2.731,2.731,0,0,0,9.461,27.7ZM12.184,29.5A1.634,1.634,0,0,1,10.6,28.192h3.174A1.634,1.634,0,0,1,12.184,29.5ZM14.052,27.7H9.959a2.224,2.224,0,0,1,2.194-2,2.2,2.2,0,0,1,2.11,1.576l0,.009a2.288,2.288,0,0,1,.082.411Zm2.378-5.137a.4.4,0,0,1-.4.4H12.755v-1.28H16.43Zm0-1.373H12.755v-.527H16.43Zm0-1.023H12.755v-.5a.4.4,0,0,1,.4-.4h2.87a.4.4,0,0,1,.4.4Z" transform="translate(0)"/></g></svg>