<svg xmlns="http://www.w3.org/2000/svg" width="20.412" height="20.412" viewBox="0 0 20.412 20.412"><defs><style>.a{fill:#c8c8c8;}</style></defs><path class="a" d="M8.636,0H.785A.785.785,0,0,0,0,.785v7.85a.785.785,0,0,0,.785.785h7.85a.785.785,0,0,0,.785-.785V.785A.785.785,0,0,0,8.636,0Z"/><path class="a" d="M21.739,0h-7.85A.785.785,0,0,0,13.1.785v7.85a.785.785,0,0,0,.785.785h7.85a.785.785,0,0,0,.785-.785V.785A.785.785,0,0,0,21.739,0Zm-.785,7.85h-6.28V1.57h6.28Z" transform="translate(-2.112)"/><path class="a" d="M8.636,13.1H.785A.785.785,0,0,0,0,13.888v7.85a.785.785,0,0,0,.785.785h7.85a.785.785,0,0,0,.785-.785v-7.85A.785.785,0,0,0,8.636,13.1Zm-4.928,7.85a1.552,1.552,0,0,0,.218-.785,1.57,1.57,0,0,0-1.57-1.57,1.552,1.552,0,0,0-.785.218V16.811a1.552,1.552,0,0,0,.785.218,1.57,1.57,0,0,0,1.57-1.57,1.551,1.551,0,0,0-.218-.785H5.713a1.552,1.552,0,0,0-.218.785,1.57,1.57,0,0,0,1.57,1.57,1.552,1.552,0,0,0,.785-.218v2.006a1.552,1.552,0,0,0-.785-.218,1.57,1.57,0,0,0-1.57,1.57,1.552,1.552,0,0,0,.218.785Z" transform="translate(0 -2.112)"/><path class="a" d="M21.739,13.1h-7.85a.785.785,0,0,0-.785.785v7.85a.785.785,0,0,0,.785.785h7.85a.785.785,0,0,0,.785-.785v-7.85A.783.783,0,0,0,21.739,13.1Zm-7.065,5.035,3.465-3.465h1.705l-5.17,5.17Zm0-3.465h1.245l-1.245,1.245Zm6.28,1.11v1.7l-3.465,3.466H15.783Zm0,5.17H19.708l1.246-1.246Z" transform="translate(-2.112 -2.112)"/><circle class="a" cx="1.57" cy="1.57" r="1.57" transform="translate(3.14 14.131)"/></svg>