<svg xmlns="http://www.w3.org/2000/svg" width="21.943" height="21.943" viewBox="0 0 21.943 21.943"><defs><style>.a{fill:#c8c8c8;}</style></defs><path class="a" d="M21.514,0H4.2a.429.429,0,0,0-.429.429V2.314H2.314a.429.429,0,0,0-.429.429V5.057H.429A.429.429,0,0,0,0,5.486V19.628a2.317,2.317,0,0,0,2.314,2.314H19.628a2.317,2.317,0,0,0,2.314-2.314V.429A.429.429,0,0,0,21.514,0Zm-.429,19.628a1.459,1.459,0,0,1-1.457,1.457H4.11a2.3,2.3,0,0,0,.518-1.457V13.843a.429.429,0,0,0-.857,0v5.786a1.457,1.457,0,1,1-2.914,0V5.914H1.886V19.2a.429.429,0,0,0,.857,0V3.171H3.771V9.986a.429.429,0,1,0,.857,0V.857H21.086Z"/><path class="a" d="M136.429,69.943h13.2a.429.429,0,0,0,.429-.429V66.429a.429.429,0,0,0-.429-.429h-13.2a.429.429,0,0,0-.429.429v3.086A.429.429,0,0,0,136.429,69.943Zm.429-3.086H149.2v2.229H136.857Z" transform="translate(-130.171 -63.171)"/><path class="a" d="M136.429,195.086h6.6a.429.429,0,0,0,.429-.429v-8.229a.429.429,0,0,0-.429-.429h-6.6a.429.429,0,0,0-.429.429v8.229A.429.429,0,0,0,136.429,195.086Zm.429-8.229H142.6v7.371h-5.743Z" transform="translate(-130.171 -178.029)"/><path class="a" d="M342.971,186h-4.543a.429.429,0,0,0,0,.857h4.543a.429.429,0,1,0,0-.857Z" transform="translate(-323.514 -178.029)"/><path class="a" d="M342.971,234h-4.543a.429.429,0,0,0,0,.857h4.543a.429.429,0,1,0,0-.857Z" transform="translate(-323.514 -223.971)"/><path class="a" d="M342.971,282h-4.543a.429.429,0,0,0,0,.857h4.543a.429.429,0,1,0,0-.857Z" transform="translate(-323.514 -269.914)"/><path class="a" d="M342.971,330h-4.543a.429.429,0,0,0,0,.857h4.543a.429.429,0,1,0,0-.857Z" transform="translate(-323.514 -315.857)"/><path class="a" d="M342.971,378h-4.543a.429.429,0,1,0,0,.857h4.543a.429.429,0,1,0,0-.857Z" transform="translate(-323.514 -361.8)"/><path class="a" d="M136.429,426.857h13.2a.429.429,0,0,0,0-.857h-13.2a.429.429,0,0,0,0,.857Z" transform="translate(-130.171 -407.743)"/><path class="a" d="M88.929,268a.429.429,0,1,0,.3.126A.432.432,0,0,0,88.929,268Z" transform="translate(-84.707 -256.514)"/></svg>